# xmcd
#
# Track frame offsets:
#	150
#	8979
#	23659
#	40117
#	53110
#	62235
#	82435
#	91722
#	105430
#	120717
#	138634
#	153071
#	167607
#	181373
#	192236
#	207846
#	220876
#	232217
#
# Disc length: 3376 seconds
#
# Revision: 1
# Processed by: cddbd v1.5.2PL0 Copyright (c) Steve Scherf et al.
# Submitted via: audiograbber 1.83.01
#
DISCID=f40d2e12
DTITLE=Various Artist - Greece (08) The Greek Songs I Love
DYEAR=1900
DGENRE=Folklore
TTITLE0=Lakis Karnezis - Cretan Dance
TTITLE1=Betty Daskalaki - Never On Sunday
TTITLE2=Sotiris Kalymnakis - Sorrow In Every Port
TTITLE3=Lordanis Tsomides - Hasapikos Dance
TTITLE4=Betty Daskalaki - I Live In A Neighbourhood
TTITLE5=Nickos Kallergis and Choir - Rock By Rock
TTITLE6=Dimitris and His Ensemble - Carnation On The Gard
TTITLE7=Tassos Mavris - Bound Dream
TTITLE8=Eva Styl and Trio Belcanto - At The Secret Beach
TTITLE9=Anestos Athanasiou - Zorba's Dance
TTITLE10=Laura - Get Up And Dance Syrtaki
TTITLE11=Maya Melaya - Margarita Margaro
TTITLE12=Eva Styl - My Tears Are Burning
TTITLE13=Betty Daskalaki and Choir - It's Dawning
TTITLE14=Tassos Mavris - Separation
TTITLE15=Trio Belcanto - Clovoy Afternoon
TTITLE16=Tassos Mavris - Ships Are Sailing
TTITLE17=Nickos Gounaris - Make Your Bed For Two
EXTD=
EXTT0=
EXTT1=
EXTT2=
EXTT3=
EXTT4=
EXTT5=
EXTT6=
EXTT7=
EXTT8=
EXTT9=
EXTT10=
EXTT11=
EXTT12=
EXTT13=
EXTT14=
EXTT15=
EXTT16=
EXTT17=
PLAYORDER=
